<mxfile host="app.diagrams.net" modified="2022-10-31T11:17:05.514Z" agent="5.0 (Windows NT 10.0; Win64; x64) AppleWebKit/537.36 (KHTML, like Gecko) Chrome/106.0.0.0 Safari/537.36" etag="qA6ZQYQQHXfg8CjVr7dc" version="20.5.1" type="github">
  <diagram name="Page-1" id="edf60f1a-56cd-e834-aa8a-f176f3a09ee4">
    <mxGraphModel dx="1497" dy="4236" grid="1" gridSize="10" guides="1" tooltips="1" connect="1" arrows="1" fold="1" page="1" pageScale="1" pageWidth="1100" pageHeight="850" background="none" math="0" shadow="0">
      <root>
        <mxCell id="0" />
        <mxCell id="1" parent="0" />
        <mxCell id="u8aLhIWjFpgA2ZNdwiho-162" value="" style="swimlane;startSize=0;labelBackgroundColor=none;fontSize=15;fontColor=#000000;" vertex="1" parent="1">
          <mxGeometry x="50" y="-3060" width="810" height="1040" as="geometry" />
        </mxCell>
        <mxCell id="u8aLhIWjFpgA2ZNdwiho-105" value="用户点击关注" style="rounded=0;whiteSpace=wrap;html=1;shadow=1;labelBackgroundColor=none;strokeWidth=1;fontFamily=Verdana;fontSize=8;align=center;fillColor=#fff2cc;strokeColor=#d6b656;" vertex="1" parent="u8aLhIWjFpgA2ZNdwiho-162">
          <mxGeometry x="185" y="90" width="120" height="60" as="geometry" />
        </mxCell>
        <mxCell id="u8aLhIWjFpgA2ZNdwiho-109" value="关注是否是自己" style="rhombus;whiteSpace=wrap;html=1;rounded=0;shadow=1;labelBackgroundColor=none;strokeWidth=1;fontFamily=Verdana;fontSize=8;align=center;fillColor=#dae8fc;strokeColor=#6c8ebf;" vertex="1" parent="u8aLhIWjFpgA2ZNdwiho-162">
          <mxGeometry x="195" y="200" width="100" height="60" as="geometry" />
        </mxCell>
        <mxCell id="u8aLhIWjFpgA2ZNdwiho-104" style="edgeStyle=orthogonalEdgeStyle;rounded=0;html=1;labelBackgroundColor=none;startSize=5;endArrow=classicThin;endFill=1;endSize=5;jettySize=auto;orthogonalLoop=1;strokeWidth=1;fontFamily=Verdana;fontSize=8" edge="1" parent="u8aLhIWjFpgA2ZNdwiho-162" target="u8aLhIWjFpgA2ZNdwiho-109">
          <mxGeometry relative="1" as="geometry">
            <mxPoint x="245" y="150" as="sourcePoint" />
          </mxGeometry>
        </mxCell>
        <mxCell id="u8aLhIWjFpgA2ZNdwiho-111" value="通过用户ID和被关注用户ID查询redis" style="whiteSpace=wrap;html=1;rounded=0;shadow=1;labelBackgroundColor=none;strokeWidth=1;fontFamily=Verdana;fontSize=8;align=center;fillColor=#fff2cc;strokeColor=#d6b656;" vertex="1" parent="u8aLhIWjFpgA2ZNdwiho-162">
          <mxGeometry x="185" y="300" width="120" height="40" as="geometry" />
        </mxCell>
        <mxCell id="u8aLhIWjFpgA2ZNdwiho-106" value="否" style="edgeStyle=orthogonalEdgeStyle;rounded=0;html=1;labelBackgroundColor=none;startSize=5;endArrow=classicThin;endFill=1;endSize=5;jettySize=auto;orthogonalLoop=1;strokeWidth=1;fontFamily=Verdana;fontSize=8" edge="1" parent="u8aLhIWjFpgA2ZNdwiho-162" source="u8aLhIWjFpgA2ZNdwiho-109" target="u8aLhIWjFpgA2ZNdwiho-111">
          <mxGeometry x="-0.5" y="10" relative="1" as="geometry">
            <mxPoint as="offset" />
          </mxGeometry>
        </mxCell>
        <mxCell id="u8aLhIWjFpgA2ZNdwiho-112" value="完成" style="strokeWidth=1;html=1;shape=mxgraph.flowchart.terminator;whiteSpace=wrap;rounded=0;shadow=1;labelBackgroundColor=none;fontFamily=Verdana;fontSize=8;align=center;fillColor=#d5e8d4;strokeColor=#82b366;" vertex="1" parent="u8aLhIWjFpgA2ZNdwiho-162">
          <mxGeometry x="215" y="980" width="60" height="30" as="geometry" />
        </mxCell>
        <mxCell id="u8aLhIWjFpgA2ZNdwiho-107" style="edgeStyle=orthogonalEdgeStyle;rounded=0;orthogonalLoop=1;jettySize=auto;html=1;entryX=0;entryY=0.5;entryDx=0;entryDy=0;entryPerimeter=0;" edge="1" parent="u8aLhIWjFpgA2ZNdwiho-162" source="u8aLhIWjFpgA2ZNdwiho-109" target="u8aLhIWjFpgA2ZNdwiho-112">
          <mxGeometry relative="1" as="geometry">
            <Array as="points">
              <mxPoint x="65" y="230" />
              <mxPoint x="65" y="995" />
            </Array>
          </mxGeometry>
        </mxCell>
        <mxCell id="u8aLhIWjFpgA2ZNdwiho-108" value="失败" style="edgeLabel;html=1;align=center;verticalAlign=middle;resizable=0;points=[];" vertex="1" connectable="0" parent="u8aLhIWjFpgA2ZNdwiho-107">
          <mxGeometry x="0.0282" y="3" relative="1" as="geometry">
            <mxPoint as="offset" />
          </mxGeometry>
        </mxCell>
        <mxCell id="u8aLhIWjFpgA2ZNdwiho-113" value="&amp;nbsp;返回错误：不能操作自己" style="text;html=1;strokeColor=none;fillColor=none;align=center;verticalAlign=middle;whiteSpace=wrap;rounded=0;" vertex="1" parent="u8aLhIWjFpgA2ZNdwiho-162">
          <mxGeometry x="75" y="200" width="120" height="30" as="geometry" />
        </mxCell>
        <mxCell id="u8aLhIWjFpgA2ZNdwiho-114" style="edgeStyle=orthogonalEdgeStyle;rounded=0;orthogonalLoop=1;jettySize=auto;html=1;entryX=1;entryY=0.5;entryDx=0;entryDy=0;entryPerimeter=0;" edge="1" parent="u8aLhIWjFpgA2ZNdwiho-162" source="u8aLhIWjFpgA2ZNdwiho-117" target="u8aLhIWjFpgA2ZNdwiho-112">
          <mxGeometry relative="1" as="geometry">
            <Array as="points">
              <mxPoint x="535" y="430" />
              <mxPoint x="535" y="995" />
            </Array>
          </mxGeometry>
        </mxCell>
        <mxCell id="u8aLhIWjFpgA2ZNdwiho-115" value="成功" style="edgeLabel;html=1;align=center;verticalAlign=middle;resizable=0;points=[];" vertex="1" connectable="0" parent="u8aLhIWjFpgA2ZNdwiho-114">
          <mxGeometry x="0.0846" y="1" relative="1" as="geometry">
            <mxPoint as="offset" />
          </mxGeometry>
        </mxCell>
        <mxCell id="u8aLhIWjFpgA2ZNdwiho-117" value="关注信息是否已存在" style="rhombus;whiteSpace=wrap;html=1;rounded=0;shadow=1;labelBackgroundColor=none;strokeWidth=1;fontFamily=Verdana;fontSize=8;align=center;fillColor=#dae8fc;strokeColor=#6c8ebf;" vertex="1" parent="u8aLhIWjFpgA2ZNdwiho-162">
          <mxGeometry x="190" y="400" width="110" height="60" as="geometry" />
        </mxCell>
        <mxCell id="u8aLhIWjFpgA2ZNdwiho-110" style="edgeStyle=orthogonalEdgeStyle;rounded=0;html=1;labelBackgroundColor=none;startSize=5;endArrow=classicThin;endFill=1;endSize=5;jettySize=auto;orthogonalLoop=1;strokeWidth=1;fontFamily=Verdana;fontSize=8;entryX=0.5;entryY=0;entryDx=0;entryDy=0;" edge="1" parent="u8aLhIWjFpgA2ZNdwiho-162" source="u8aLhIWjFpgA2ZNdwiho-111" target="u8aLhIWjFpgA2ZNdwiho-117">
          <mxGeometry relative="1" as="geometry">
            <mxPoint x="245" y="390" as="targetPoint" />
          </mxGeometry>
        </mxCell>
        <mxCell id="u8aLhIWjFpgA2ZNdwiho-119" value="关注信息保存至redis" style="whiteSpace=wrap;html=1;fontSize=8;fontFamily=Verdana;rounded=0;shadow=1;labelBackgroundColor=none;strokeWidth=1;fillColor=#fff2cc;strokeColor=#d6b656;" vertex="1" parent="u8aLhIWjFpgA2ZNdwiho-162">
          <mxGeometry x="185" y="540" width="120" height="60" as="geometry" />
        </mxCell>
        <mxCell id="u8aLhIWjFpgA2ZNdwiho-121" value="&lt;span style=&quot;font-size: 8px;&quot;&gt;&lt;font color=&quot;#ff9999&quot;&gt;用户完成关注任务并更新经验值（每天限制10次）&lt;/font&gt;&lt;/span&gt;" style="whiteSpace=wrap;html=1;fontSize=8;fontFamily=Verdana;rounded=0;shadow=1;labelBackgroundColor=none;strokeWidth=1;fillColor=#fff2cc;strokeColor=#d6b656;" vertex="1" parent="u8aLhIWjFpgA2ZNdwiho-162">
          <mxGeometry x="185" y="680" width="120" height="60" as="geometry" />
        </mxCell>
        <mxCell id="u8aLhIWjFpgA2ZNdwiho-118" value="" style="edgeStyle=orthogonalEdgeStyle;rounded=0;orthogonalLoop=1;jettySize=auto;html=1;" edge="1" parent="u8aLhIWjFpgA2ZNdwiho-162" source="u8aLhIWjFpgA2ZNdwiho-119" target="u8aLhIWjFpgA2ZNdwiho-121">
          <mxGeometry relative="1" as="geometry" />
        </mxCell>
        <mxCell id="u8aLhIWjFpgA2ZNdwiho-135" style="edgeStyle=orthogonalEdgeStyle;rounded=0;orthogonalLoop=1;jettySize=auto;html=1;fontColor=#000000;" edge="1" parent="u8aLhIWjFpgA2ZNdwiho-162" source="u8aLhIWjFpgA2ZNdwiho-136" target="u8aLhIWjFpgA2ZNdwiho-112">
          <mxGeometry relative="1" as="geometry" />
        </mxCell>
        <mxCell id="u8aLhIWjFpgA2ZNdwiho-136" value="发送系统消息（普通消息）" style="whiteSpace=wrap;html=1;fontSize=8;fontFamily=Verdana;rounded=0;shadow=1;labelBackgroundColor=none;strokeWidth=1;fillColor=#fff2cc;strokeColor=#d6b656;" vertex="1" parent="u8aLhIWjFpgA2ZNdwiho-162">
          <mxGeometry x="185" y="820" width="120" height="60" as="geometry" />
        </mxCell>
        <mxCell id="u8aLhIWjFpgA2ZNdwiho-120" value="" style="edgeStyle=orthogonalEdgeStyle;rounded=0;orthogonalLoop=1;jettySize=auto;html=1;fontColor=#000000;" edge="1" parent="u8aLhIWjFpgA2ZNdwiho-162" source="u8aLhIWjFpgA2ZNdwiho-121" target="u8aLhIWjFpgA2ZNdwiho-136">
          <mxGeometry relative="1" as="geometry" />
        </mxCell>
        <mxCell id="u8aLhIWjFpgA2ZNdwiho-138" value="否" style="text;html=1;strokeColor=none;fillColor=none;align=center;verticalAlign=middle;whiteSpace=wrap;rounded=0;labelBackgroundColor=none;fontSize=15;fontColor=#000000;" vertex="1" parent="u8aLhIWjFpgA2ZNdwiho-162">
          <mxGeometry x="215" y="475" width="60" height="30" as="geometry" />
        </mxCell>
        <mxCell id="u8aLhIWjFpgA2ZNdwiho-116" value="" style="edgeStyle=orthogonalEdgeStyle;rounded=0;orthogonalLoop=1;jettySize=auto;html=1;startArrow=none;" edge="1" parent="u8aLhIWjFpgA2ZNdwiho-162" source="u8aLhIWjFpgA2ZNdwiho-138" target="u8aLhIWjFpgA2ZNdwiho-119">
          <mxGeometry relative="1" as="geometry">
            <Array as="points">
              <mxPoint x="245" y="500" />
              <mxPoint x="245" y="500" />
            </Array>
          </mxGeometry>
        </mxCell>
        <mxCell id="u8aLhIWjFpgA2ZNdwiho-139" value="" style="edgeStyle=orthogonalEdgeStyle;rounded=0;orthogonalLoop=1;jettySize=auto;html=1;endArrow=none;" edge="1" parent="u8aLhIWjFpgA2ZNdwiho-162" source="u8aLhIWjFpgA2ZNdwiho-117" target="u8aLhIWjFpgA2ZNdwiho-138">
          <mxGeometry relative="1" as="geometry">
            <mxPoint x="245" y="460" as="sourcePoint" />
            <mxPoint x="245" y="540" as="targetPoint" />
            <Array as="points">
              <mxPoint x="265" y="500" />
              <mxPoint x="265" y="500" />
            </Array>
          </mxGeometry>
        </mxCell>
        <mxCell id="u8aLhIWjFpgA2ZNdwiho-140" value="是" style="text;html=1;strokeColor=none;fillColor=none;align=center;verticalAlign=middle;whiteSpace=wrap;rounded=0;labelBackgroundColor=none;fontSize=15;fontColor=#000000;" vertex="1" parent="u8aLhIWjFpgA2ZNdwiho-162">
          <mxGeometry x="335" y="400" width="60" height="30" as="geometry" />
        </mxCell>
        <mxCell id="u8aLhIWjFpgA2ZNdwiho-147" value="" style="shape=table;startSize=0;container=1;collapsible=0;childLayout=tableLayout;labelBackgroundColor=none;fontSize=15;fillColor=#ffe6cc;strokeColor=#d79b00;" vertex="1" parent="u8aLhIWjFpgA2ZNdwiho-162">
          <mxGeometry x="515" y="90" width="250" height="100" as="geometry" />
        </mxCell>
        <mxCell id="u8aLhIWjFpgA2ZNdwiho-148" value="" style="shape=tableRow;horizontal=0;startSize=0;swimlaneHead=0;swimlaneBody=0;top=0;left=0;bottom=0;right=0;collapsible=0;dropTarget=0;fillColor=none;points=[[0,0.5],[1,0.5]];portConstraint=eastwest;labelBackgroundColor=none;fontSize=15;fontColor=#000000;" vertex="1" parent="u8aLhIWjFpgA2ZNdwiho-147">
          <mxGeometry width="250" height="40" as="geometry" />
        </mxCell>
        <mxCell id="u8aLhIWjFpgA2ZNdwiho-149" value="操作" style="shape=partialRectangle;html=1;whiteSpace=wrap;connectable=0;overflow=hidden;fillColor=none;top=0;left=0;bottom=0;right=0;pointerEvents=1;labelBackgroundColor=none;fontSize=15;fontColor=#000000;fontStyle=1" vertex="1" parent="u8aLhIWjFpgA2ZNdwiho-148">
          <mxGeometry width="120" height="40" as="geometry">
            <mxRectangle width="120" height="40" as="alternateBounds" />
          </mxGeometry>
        </mxCell>
        <mxCell id="u8aLhIWjFpgA2ZNdwiho-150" value="&lt;b&gt;问题描述&lt;/b&gt;" style="shape=partialRectangle;html=1;whiteSpace=wrap;connectable=0;overflow=hidden;fillColor=none;top=0;left=0;bottom=0;right=0;pointerEvents=1;labelBackgroundColor=none;fontSize=15;fontColor=#000000;" vertex="1" parent="u8aLhIWjFpgA2ZNdwiho-148">
          <mxGeometry x="120" width="130" height="40" as="geometry">
            <mxRectangle width="130" height="40" as="alternateBounds" />
          </mxGeometry>
        </mxCell>
        <mxCell id="u8aLhIWjFpgA2ZNdwiho-151" value="" style="shape=tableRow;horizontal=0;startSize=0;swimlaneHead=0;swimlaneBody=0;top=0;left=0;bottom=0;right=0;collapsible=0;dropTarget=0;fillColor=none;points=[[0,0.5],[1,0.5]];portConstraint=eastwest;labelBackgroundColor=none;fontSize=15;fontColor=#000000;" vertex="1" parent="u8aLhIWjFpgA2ZNdwiho-147">
          <mxGeometry y="40" width="250" height="60" as="geometry" />
        </mxCell>
        <mxCell id="u8aLhIWjFpgA2ZNdwiho-152" value="&lt;span style=&quot;font-family: Verdana; font-size: 8px;&quot;&gt;用户完成关注任务并更新经验值&lt;/span&gt;" style="shape=partialRectangle;html=1;whiteSpace=wrap;connectable=0;overflow=hidden;fillColor=none;top=0;left=0;bottom=0;right=0;pointerEvents=1;labelBackgroundColor=none;fontSize=15;fontColor=#000000;" vertex="1" parent="u8aLhIWjFpgA2ZNdwiho-151">
          <mxGeometry width="120" height="60" as="geometry">
            <mxRectangle width="120" height="60" as="alternateBounds" />
          </mxGeometry>
        </mxCell>
        <mxCell id="u8aLhIWjFpgA2ZNdwiho-153" value="&lt;span style=&quot;font-size: 12px;&quot;&gt;代码与需求不符合，代码已写死关注不加经验&lt;/span&gt;" style="shape=partialRectangle;html=1;whiteSpace=wrap;connectable=0;overflow=hidden;fillColor=none;top=0;left=0;bottom=0;right=0;pointerEvents=1;labelBackgroundColor=none;fontSize=15;fontColor=#000000;" vertex="1" parent="u8aLhIWjFpgA2ZNdwiho-151">
          <mxGeometry x="120" width="130" height="60" as="geometry">
            <mxRectangle width="130" height="60" as="alternateBounds" />
          </mxGeometry>
        </mxCell>
        <mxCell id="u8aLhIWjFpgA2ZNdwiho-163" value="&lt;b&gt;&lt;font style=&quot;font-size: 15px;&quot;&gt;用户关注流程图&lt;/font&gt;&lt;/b&gt;" style="text;html=1;strokeColor=none;fillColor=none;align=center;verticalAlign=middle;whiteSpace=wrap;rounded=0;labelBackgroundColor=none;fontColor=#000000;" vertex="1" parent="u8aLhIWjFpgA2ZNdwiho-162">
          <mxGeometry x="330" y="20" width="140" height="30" as="geometry" />
        </mxCell>
        <mxCell id="u8aLhIWjFpgA2ZNdwiho-164" value="" style="swimlane;startSize=0;labelBackgroundColor=none;fontSize=15;fontColor=#000000;" vertex="1" parent="1">
          <mxGeometry x="930" y="-3060" width="790" height="1040" as="geometry" />
        </mxCell>
        <mxCell id="u8aLhIWjFpgA2ZNdwiho-68" value="用户点击关注" style="rounded=0;whiteSpace=wrap;html=1;shadow=1;labelBackgroundColor=none;strokeWidth=1;fontFamily=Verdana;fontSize=8;align=center;fillColor=#fff2cc;strokeColor=#d6b656;" vertex="1" parent="u8aLhIWjFpgA2ZNdwiho-164">
          <mxGeometry x="180" y="100" width="120" height="60" as="geometry" />
        </mxCell>
        <mxCell id="u8aLhIWjFpgA2ZNdwiho-72" value="取消关注的用户是否是当前用户" style="rhombus;whiteSpace=wrap;html=1;rounded=0;shadow=1;labelBackgroundColor=none;strokeWidth=1;fontFamily=Verdana;fontSize=8;align=center;fillColor=#dae8fc;strokeColor=#6c8ebf;" vertex="1" parent="u8aLhIWjFpgA2ZNdwiho-164">
          <mxGeometry x="190" y="210" width="100" height="60" as="geometry" />
        </mxCell>
        <mxCell id="u8aLhIWjFpgA2ZNdwiho-67" style="edgeStyle=orthogonalEdgeStyle;rounded=0;html=1;labelBackgroundColor=none;startSize=5;endArrow=classicThin;endFill=1;endSize=5;jettySize=auto;orthogonalLoop=1;strokeWidth=1;fontFamily=Verdana;fontSize=8" edge="1" parent="u8aLhIWjFpgA2ZNdwiho-164" source="u8aLhIWjFpgA2ZNdwiho-68" target="u8aLhIWjFpgA2ZNdwiho-72">
          <mxGeometry relative="1" as="geometry" />
        </mxCell>
        <mxCell id="u8aLhIWjFpgA2ZNdwiho-74" value="通过用户ID和被关注用户ID查询redis" style="whiteSpace=wrap;html=1;rounded=0;shadow=1;labelBackgroundColor=none;strokeWidth=1;fontFamily=Verdana;fontSize=8;align=center;fillColor=#fff2cc;strokeColor=#d6b656;" vertex="1" parent="u8aLhIWjFpgA2ZNdwiho-164">
          <mxGeometry x="180" y="310" width="120" height="40" as="geometry" />
        </mxCell>
        <mxCell id="u8aLhIWjFpgA2ZNdwiho-69" value="No" style="edgeStyle=orthogonalEdgeStyle;rounded=0;html=1;labelBackgroundColor=none;startSize=5;endArrow=classicThin;endFill=1;endSize=5;jettySize=auto;orthogonalLoop=1;strokeWidth=1;fontFamily=Verdana;fontSize=8" edge="1" parent="u8aLhIWjFpgA2ZNdwiho-164" source="u8aLhIWjFpgA2ZNdwiho-72" target="u8aLhIWjFpgA2ZNdwiho-74">
          <mxGeometry x="-0.5" y="10" relative="1" as="geometry">
            <mxPoint as="offset" />
          </mxGeometry>
        </mxCell>
        <mxCell id="u8aLhIWjFpgA2ZNdwiho-75" value="完成" style="strokeWidth=1;html=1;shape=mxgraph.flowchart.terminator;whiteSpace=wrap;rounded=0;shadow=1;labelBackgroundColor=none;fontFamily=Verdana;fontSize=8;align=center;fillColor=#d5e8d4;strokeColor=#82b366;" vertex="1" parent="u8aLhIWjFpgA2ZNdwiho-164">
          <mxGeometry x="210" y="710" width="60" height="30" as="geometry" />
        </mxCell>
        <mxCell id="u8aLhIWjFpgA2ZNdwiho-70" style="edgeStyle=orthogonalEdgeStyle;rounded=0;orthogonalLoop=1;jettySize=auto;html=1;entryX=0;entryY=0.5;entryDx=0;entryDy=0;entryPerimeter=0;" edge="1" parent="u8aLhIWjFpgA2ZNdwiho-164" source="u8aLhIWjFpgA2ZNdwiho-72" target="u8aLhIWjFpgA2ZNdwiho-75">
          <mxGeometry relative="1" as="geometry">
            <Array as="points">
              <mxPoint x="60" y="240" />
              <mxPoint x="60" y="725" />
            </Array>
          </mxGeometry>
        </mxCell>
        <mxCell id="u8aLhIWjFpgA2ZNdwiho-71" value="失败" style="edgeLabel;html=1;align=center;verticalAlign=middle;resizable=0;points=[];" vertex="1" connectable="0" parent="u8aLhIWjFpgA2ZNdwiho-70">
          <mxGeometry x="0.0282" y="3" relative="1" as="geometry">
            <mxPoint as="offset" />
          </mxGeometry>
        </mxCell>
        <mxCell id="u8aLhIWjFpgA2ZNdwiho-76" value="&amp;nbsp;返回错误信息：不能操作自己！" style="text;html=1;strokeColor=none;fillColor=none;align=center;verticalAlign=middle;whiteSpace=wrap;rounded=0;" vertex="1" parent="u8aLhIWjFpgA2ZNdwiho-164">
          <mxGeometry x="70" y="210" width="120" height="30" as="geometry" />
        </mxCell>
        <mxCell id="u8aLhIWjFpgA2ZNdwiho-77" style="edgeStyle=orthogonalEdgeStyle;rounded=0;orthogonalLoop=1;jettySize=auto;html=1;entryX=1;entryY=0.5;entryDx=0;entryDy=0;entryPerimeter=0;" edge="1" parent="u8aLhIWjFpgA2ZNdwiho-164" source="u8aLhIWjFpgA2ZNdwiho-80" target="u8aLhIWjFpgA2ZNdwiho-75">
          <mxGeometry relative="1" as="geometry">
            <Array as="points">
              <mxPoint x="530" y="440" />
              <mxPoint x="530" y="725" />
            </Array>
          </mxGeometry>
        </mxCell>
        <mxCell id="u8aLhIWjFpgA2ZNdwiho-78" value="成功" style="edgeLabel;html=1;align=center;verticalAlign=middle;resizable=0;points=[];" vertex="1" connectable="0" parent="u8aLhIWjFpgA2ZNdwiho-77">
          <mxGeometry x="0.0846" y="1" relative="1" as="geometry">
            <mxPoint as="offset" />
          </mxGeometry>
        </mxCell>
        <mxCell id="u8aLhIWjFpgA2ZNdwiho-80" value="关注信息是否已存在" style="rhombus;whiteSpace=wrap;html=1;rounded=0;shadow=1;labelBackgroundColor=none;strokeWidth=1;fontFamily=Verdana;fontSize=8;align=center;fillColor=#dae8fc;strokeColor=#6c8ebf;" vertex="1" parent="u8aLhIWjFpgA2ZNdwiho-164">
          <mxGeometry x="185" y="410" width="110" height="60" as="geometry" />
        </mxCell>
        <mxCell id="u8aLhIWjFpgA2ZNdwiho-73" style="edgeStyle=orthogonalEdgeStyle;rounded=0;html=1;labelBackgroundColor=none;startSize=5;endArrow=classicThin;endFill=1;endSize=5;jettySize=auto;orthogonalLoop=1;strokeWidth=1;fontFamily=Verdana;fontSize=8;entryX=0.5;entryY=0;entryDx=0;entryDy=0;" edge="1" parent="u8aLhIWjFpgA2ZNdwiho-164" source="u8aLhIWjFpgA2ZNdwiho-74" target="u8aLhIWjFpgA2ZNdwiho-80">
          <mxGeometry relative="1" as="geometry">
            <mxPoint x="240" y="400" as="targetPoint" />
          </mxGeometry>
        </mxCell>
        <mxCell id="u8aLhIWjFpgA2ZNdwiho-81" value="" style="edgeStyle=orthogonalEdgeStyle;rounded=0;orthogonalLoop=1;jettySize=auto;html=1;" edge="1" parent="u8aLhIWjFpgA2ZNdwiho-164" source="u8aLhIWjFpgA2ZNdwiho-82" target="u8aLhIWjFpgA2ZNdwiho-75">
          <mxGeometry relative="1" as="geometry">
            <mxPoint x="240" y="690" as="targetPoint" />
          </mxGeometry>
        </mxCell>
        <mxCell id="u8aLhIWjFpgA2ZNdwiho-82" value="删除redis中的订阅关系" style="whiteSpace=wrap;html=1;fontSize=8;fontFamily=Verdana;rounded=0;shadow=1;labelBackgroundColor=none;strokeWidth=1;fillColor=#fff2cc;strokeColor=#d6b656;" vertex="1" parent="u8aLhIWjFpgA2ZNdwiho-164">
          <mxGeometry x="180" y="550" width="120" height="60" as="geometry" />
        </mxCell>
        <mxCell id="u8aLhIWjFpgA2ZNdwiho-79" value="" style="edgeStyle=orthogonalEdgeStyle;rounded=0;orthogonalLoop=1;jettySize=auto;html=1;" edge="1" parent="u8aLhIWjFpgA2ZNdwiho-164" source="u8aLhIWjFpgA2ZNdwiho-80" target="u8aLhIWjFpgA2ZNdwiho-82">
          <mxGeometry relative="1" as="geometry" />
        </mxCell>
        <mxCell id="u8aLhIWjFpgA2ZNdwiho-102" value="&lt;b&gt;&lt;font style=&quot;font-size: 15px;&quot;&gt;用户取消关注流程图&lt;/font&gt;&lt;/b&gt;" style="text;html=1;strokeColor=none;fillColor=none;align=center;verticalAlign=middle;whiteSpace=wrap;rounded=0;labelBackgroundColor=none;fontColor=#000000;" vertex="1" parent="u8aLhIWjFpgA2ZNdwiho-164">
          <mxGeometry x="300" y="30" width="140" height="30" as="geometry" />
        </mxCell>
        <mxCell id="u8aLhIWjFpgA2ZNdwiho-143" value="是" style="text;html=1;strokeColor=none;fillColor=none;align=center;verticalAlign=middle;whiteSpace=wrap;rounded=0;labelBackgroundColor=none;fontSize=15;fontColor=#000000;" vertex="1" parent="u8aLhIWjFpgA2ZNdwiho-164">
          <mxGeometry x="205" y="480" width="70" height="30" as="geometry" />
        </mxCell>
        <mxCell id="u8aLhIWjFpgA2ZNdwiho-146" value="否" style="text;html=1;strokeColor=none;fillColor=none;align=center;verticalAlign=middle;whiteSpace=wrap;rounded=0;labelBackgroundColor=none;fontSize=15;fontColor=#000000;" vertex="1" parent="u8aLhIWjFpgA2ZNdwiho-164">
          <mxGeometry x="350" y="410" width="60" height="30" as="geometry" />
        </mxCell>
        <mxCell id="u8aLhIWjFpgA2ZNdwiho-165" value="" style="swimlane;startSize=0;labelBackgroundColor=none;fontSize=15;fontColor=#000000;" vertex="1" parent="1">
          <mxGeometry x="1750" y="-3060" width="790" height="1270" as="geometry" />
        </mxCell>
        <mxCell id="u8aLhIWjFpgA2ZNdwiho-222" style="edgeStyle=orthogonalEdgeStyle;rounded=0;orthogonalLoop=1;jettySize=auto;html=1;fontSize=15;fontColor=#000000;" edge="1" parent="u8aLhIWjFpgA2ZNdwiho-165" source="u8aLhIWjFpgA2ZNdwiho-166" target="u8aLhIWjFpgA2ZNdwiho-203">
          <mxGeometry relative="1" as="geometry" />
        </mxCell>
        <mxCell id="u8aLhIWjFpgA2ZNdwiho-166" value="调用分享接口" style="rounded=0;whiteSpace=wrap;html=1;shadow=1;labelBackgroundColor=none;strokeWidth=1;fontFamily=Verdana;fontSize=8;align=center;fillColor=#fff2cc;strokeColor=#d6b656;" vertex="1" parent="u8aLhIWjFpgA2ZNdwiho-165">
          <mxGeometry x="342.53" y="167.5" width="135.05" height="65" as="geometry" />
        </mxCell>
        <mxCell id="u8aLhIWjFpgA2ZNdwiho-208" style="edgeStyle=orthogonalEdgeStyle;rounded=0;orthogonalLoop=1;jettySize=auto;html=1;entryX=0.5;entryY=0;entryDx=0;entryDy=0;fontSize=15;fontColor=#000000;startArrow=none;" edge="1" parent="u8aLhIWjFpgA2ZNdwiho-165" source="u8aLhIWjFpgA2ZNdwiho-194" target="u8aLhIWjFpgA2ZNdwiho-196">
          <mxGeometry relative="1" as="geometry" />
        </mxCell>
        <mxCell id="u8aLhIWjFpgA2ZNdwiho-167" value="value是否包含当前用户" style="rhombus;whiteSpace=wrap;html=1;rounded=0;shadow=1;labelBackgroundColor=none;strokeWidth=1;fontFamily=Verdana;fontSize=8;align=center;fillColor=#dae8fc;strokeColor=#6c8ebf;" vertex="1" parent="u8aLhIWjFpgA2ZNdwiho-165">
          <mxGeometry x="355.07" y="460" width="109.98" height="60" as="geometry" />
        </mxCell>
        <mxCell id="u8aLhIWjFpgA2ZNdwiho-182" value="&lt;span style=&quot;font-size: 15px;&quot;&gt;&lt;b&gt;用户动态分享&lt;/b&gt;&lt;/span&gt;" style="text;html=1;strokeColor=none;fillColor=none;align=center;verticalAlign=middle;whiteSpace=wrap;rounded=0;labelBackgroundColor=none;fontColor=#000000;" vertex="1" parent="u8aLhIWjFpgA2ZNdwiho-165">
          <mxGeometry x="330" y="20" width="140" height="30" as="geometry" />
        </mxCell>
        <mxCell id="u8aLhIWjFpgA2ZNdwiho-184" value="是" style="text;html=1;strokeColor=none;fillColor=none;align=center;verticalAlign=middle;whiteSpace=wrap;rounded=0;labelBackgroundColor=none;fontSize=15;fontColor=#000000;" vertex="1" parent="u8aLhIWjFpgA2ZNdwiho-165">
          <mxGeometry x="548.68" y="460" width="60" height="30" as="geometry" />
        </mxCell>
        <mxCell id="u8aLhIWjFpgA2ZNdwiho-188" style="edgeStyle=orthogonalEdgeStyle;rounded=0;orthogonalLoop=1;jettySize=auto;html=1;fontSize=15;fontColor=#000000;" edge="1" parent="u8aLhIWjFpgA2ZNdwiho-165" source="u8aLhIWjFpgA2ZNdwiho-186" target="u8aLhIWjFpgA2ZNdwiho-166">
          <mxGeometry relative="1" as="geometry" />
        </mxCell>
        <mxCell id="u8aLhIWjFpgA2ZNdwiho-186" value="&lt;span style=&quot;font-family: Verdana; font-size: 8px;&quot;&gt;用户点击分享，唤起微信/微信朋友圈/QQ其一，并将比熊app下载地址进行分享，然后跳回比熊APP&lt;/span&gt;" style="shape=document;whiteSpace=wrap;html=1;boundedLbl=1;labelBackgroundColor=none;fontSize=15;fillColor=#f9f7ed;strokeColor=#36393d;" vertex="1" parent="u8aLhIWjFpgA2ZNdwiho-165">
          <mxGeometry x="80" y="130" width="190" height="140" as="geometry" />
        </mxCell>
        <mxCell id="u8aLhIWjFpgA2ZNdwiho-187" value="前置工作" style="text;html=1;strokeColor=none;fillColor=none;align=center;verticalAlign=middle;whiteSpace=wrap;rounded=0;labelBackgroundColor=none;fontSize=15;fontColor=#000000;" vertex="1" parent="u8aLhIWjFpgA2ZNdwiho-165">
          <mxGeometry x="120" y="100" width="80" height="30" as="geometry" />
        </mxCell>
        <mxCell id="u8aLhIWjFpgA2ZNdwiho-215" style="edgeStyle=orthogonalEdgeStyle;rounded=0;orthogonalLoop=1;jettySize=auto;html=1;entryX=0.5;entryY=0;entryDx=0;entryDy=0;fontSize=15;fontColor=#000000;" edge="1" parent="u8aLhIWjFpgA2ZNdwiho-165" source="u8aLhIWjFpgA2ZNdwiho-196" target="u8aLhIWjFpgA2ZNdwiho-200">
          <mxGeometry relative="1" as="geometry" />
        </mxCell>
        <mxCell id="u8aLhIWjFpgA2ZNdwiho-196" value="记录当前动态的共享用户（redis的set结构存储key：动态唯一标识，value:用户列表）" style="whiteSpace=wrap;html=1;fontSize=8;fontFamily=Verdana;rounded=0;shadow=1;labelBackgroundColor=none;strokeWidth=1;fillColor=#fff2cc;strokeColor=#d6b656;" vertex="1" parent="u8aLhIWjFpgA2ZNdwiho-165">
          <mxGeometry x="338.84999999999997" y="590" width="142.42" height="90" as="geometry" />
        </mxCell>
        <mxCell id="u8aLhIWjFpgA2ZNdwiho-200" value="通过动态ID获取动态信息" style="whiteSpace=wrap;html=1;fontSize=8;fontFamily=Verdana;rounded=0;shadow=1;labelBackgroundColor=none;strokeWidth=1;fillColor=#fff2cc;strokeColor=#d6b656;" vertex="1" parent="u8aLhIWjFpgA2ZNdwiho-165">
          <mxGeometry x="350.0000000000004" y="780" width="120" height="60" as="geometry" />
        </mxCell>
        <mxCell id="u8aLhIWjFpgA2ZNdwiho-205" style="edgeStyle=orthogonalEdgeStyle;rounded=0;orthogonalLoop=1;jettySize=auto;html=1;entryX=0.5;entryY=0;entryDx=0;entryDy=0;fontSize=15;fontColor=#000000;" edge="1" parent="u8aLhIWjFpgA2ZNdwiho-165" source="u8aLhIWjFpgA2ZNdwiho-203" target="u8aLhIWjFpgA2ZNdwiho-167">
          <mxGeometry relative="1" as="geometry" />
        </mxCell>
        <mxCell id="u8aLhIWjFpgA2ZNdwiho-203" value="通过动态ID+当前用户ID查询是否已分享（redis的set结构存储key：动态唯一标识，value:用户列表）" style="rounded=0;whiteSpace=wrap;html=1;shadow=1;labelBackgroundColor=none;strokeWidth=1;fontFamily=Verdana;fontSize=8;align=center;fillColor=#fff2cc;strokeColor=#d6b656;" vertex="1" parent="u8aLhIWjFpgA2ZNdwiho-165">
          <mxGeometry x="331.32" y="307.5" width="157.47" height="80" as="geometry" />
        </mxCell>
        <mxCell id="u8aLhIWjFpgA2ZNdwiho-194" value="否" style="text;html=1;strokeColor=none;fillColor=none;align=center;verticalAlign=middle;whiteSpace=wrap;rounded=0;labelBackgroundColor=none;fontSize=15;fontColor=#000000;" vertex="1" parent="u8aLhIWjFpgA2ZNdwiho-165">
          <mxGeometry x="378.74" y="530" width="60" height="30" as="geometry" />
        </mxCell>
        <mxCell id="u8aLhIWjFpgA2ZNdwiho-209" value="" style="edgeStyle=orthogonalEdgeStyle;rounded=0;orthogonalLoop=1;jettySize=auto;html=1;entryX=0.5;entryY=0;entryDx=0;entryDy=0;fontSize=15;fontColor=#000000;endArrow=none;" edge="1" parent="u8aLhIWjFpgA2ZNdwiho-165" source="u8aLhIWjFpgA2ZNdwiho-167" target="u8aLhIWjFpgA2ZNdwiho-194">
          <mxGeometry relative="1" as="geometry">
            <mxPoint x="2148.7299999999996" y="-2550" as="sourcePoint" />
            <mxPoint x="2148.7299999999996" y="-2480" as="targetPoint" />
          </mxGeometry>
        </mxCell>
        <mxCell id="u8aLhIWjFpgA2ZNdwiho-211" value="当前动态的用户ID是否是当前用户" style="rhombus;whiteSpace=wrap;html=1;rounded=0;shadow=1;labelBackgroundColor=none;strokeWidth=1;fontFamily=Verdana;fontSize=8;align=center;fillColor=#dae8fc;strokeColor=#6c8ebf;" vertex="1" parent="u8aLhIWjFpgA2ZNdwiho-165">
          <mxGeometry x="355.07000000000016" y="900" width="109.98" height="60" as="geometry" />
        </mxCell>
        <mxCell id="u8aLhIWjFpgA2ZNdwiho-216" style="edgeStyle=orthogonalEdgeStyle;rounded=0;orthogonalLoop=1;jettySize=auto;html=1;entryX=0.5;entryY=0;entryDx=0;entryDy=0;fontSize=15;fontColor=#000000;" edge="1" parent="u8aLhIWjFpgA2ZNdwiho-165" source="u8aLhIWjFpgA2ZNdwiho-200" target="u8aLhIWjFpgA2ZNdwiho-211">
          <mxGeometry relative="1" as="geometry" />
        </mxCell>
        <mxCell id="u8aLhIWjFpgA2ZNdwiho-214" value="发送系统消息（动态内容最多20个字）" style="whiteSpace=wrap;html=1;fontSize=8;fontFamily=Verdana;rounded=0;shadow=1;labelBackgroundColor=none;strokeWidth=1;fillColor=#fff2cc;strokeColor=#d6b656;" vertex="1" parent="u8aLhIWjFpgA2ZNdwiho-165">
          <mxGeometry x="350.0600000000004" y="1070" width="120" height="60" as="geometry" />
        </mxCell>
        <mxCell id="u8aLhIWjFpgA2ZNdwiho-217" style="edgeStyle=orthogonalEdgeStyle;rounded=0;orthogonalLoop=1;jettySize=auto;html=1;fontSize=15;fontColor=#000000;" edge="1" parent="u8aLhIWjFpgA2ZNdwiho-165" source="u8aLhIWjFpgA2ZNdwiho-211" target="u8aLhIWjFpgA2ZNdwiho-214">
          <mxGeometry relative="1" as="geometry" />
        </mxCell>
        <mxCell id="u8aLhIWjFpgA2ZNdwiho-171" value="完成" style="strokeWidth=1;html=1;shape=mxgraph.flowchart.terminator;whiteSpace=wrap;rounded=0;shadow=1;labelBackgroundColor=none;fontFamily=Verdana;fontSize=8;align=center;fillColor=#d5e8d4;strokeColor=#82b366;" vertex="1" parent="u8aLhIWjFpgA2ZNdwiho-165">
          <mxGeometry x="380.0599999999998" y="1200" width="60" height="30" as="geometry" />
        </mxCell>
        <mxCell id="u8aLhIWjFpgA2ZNdwiho-175" style="edgeStyle=orthogonalEdgeStyle;rounded=0;orthogonalLoop=1;jettySize=auto;html=1;exitX=1;exitY=0.5;exitDx=0;exitDy=0;" edge="1" parent="u8aLhIWjFpgA2ZNdwiho-165" source="u8aLhIWjFpgA2ZNdwiho-167" target="u8aLhIWjFpgA2ZNdwiho-171">
          <mxGeometry relative="1" as="geometry">
            <Array as="points">
              <mxPoint x="699" y="490" />
              <mxPoint x="699" y="1215" />
            </Array>
            <mxPoint x="438.67999999999984" y="850" as="targetPoint" />
          </mxGeometry>
        </mxCell>
        <mxCell id="u8aLhIWjFpgA2ZNdwiho-176" value="成功" style="edgeLabel;html=1;align=center;verticalAlign=middle;resizable=0;points=[];" vertex="1" connectable="0" parent="u8aLhIWjFpgA2ZNdwiho-175">
          <mxGeometry x="0.0846" y="1" relative="1" as="geometry">
            <mxPoint as="offset" />
          </mxGeometry>
        </mxCell>
        <mxCell id="u8aLhIWjFpgA2ZNdwiho-220" style="edgeStyle=orthogonalEdgeStyle;rounded=0;orthogonalLoop=1;jettySize=auto;html=1;fontSize=15;fontColor=#000000;" edge="1" parent="u8aLhIWjFpgA2ZNdwiho-165" source="u8aLhIWjFpgA2ZNdwiho-214" target="u8aLhIWjFpgA2ZNdwiho-171">
          <mxGeometry relative="1" as="geometry" />
        </mxCell>
        <mxCell id="u8aLhIWjFpgA2ZNdwiho-221" style="edgeStyle=orthogonalEdgeStyle;rounded=0;orthogonalLoop=1;jettySize=auto;html=1;entryX=1;entryY=0.5;entryDx=0;entryDy=0;entryPerimeter=0;fontSize=15;fontColor=#000000;" edge="1" parent="u8aLhIWjFpgA2ZNdwiho-165" source="u8aLhIWjFpgA2ZNdwiho-211" target="u8aLhIWjFpgA2ZNdwiho-171">
          <mxGeometry relative="1" as="geometry">
            <Array as="points">
              <mxPoint x="699" y="930" />
              <mxPoint x="699" y="1215" />
            </Array>
          </mxGeometry>
        </mxCell>
        <mxCell id="u8aLhIWjFpgA2ZNdwiho-223" value="是" style="text;html=1;strokeColor=none;fillColor=none;align=center;verticalAlign=middle;whiteSpace=wrap;rounded=0;labelBackgroundColor=none;fontSize=15;fontColor=#000000;" vertex="1" parent="u8aLhIWjFpgA2ZNdwiho-165">
          <mxGeometry x="520" y="905" width="60" height="30" as="geometry" />
        </mxCell>
        <mxCell id="u8aLhIWjFpgA2ZNdwiho-224" value="否" style="text;html=1;strokeColor=none;fillColor=none;align=center;verticalAlign=middle;whiteSpace=wrap;rounded=0;labelBackgroundColor=none;fontSize=15;fontColor=#000000;" vertex="1" parent="u8aLhIWjFpgA2ZNdwiho-165">
          <mxGeometry x="380" y="990" width="60" height="30" as="geometry" />
        </mxCell>
      </root>
    </mxGraphModel>
  </diagram>
</mxfile>
